<?xml version="1.0" encoding="UTF-8" standalone="no"?><svg xmlns="http://www.w3.org/2000/svg" xmlns:xlink="http://www.w3.org/1999/xlink" contentStyleType="text/css" height="1037px" preserveAspectRatio="none" style="width:1021px;height:1037px;background:#FFFFFF;" version="1.1" viewBox="0 0 1021 1037" width="1021px" zoomAndPan="magnify"><defs/><g><rect height="30.4883" style="stroke:#00000000;stroke-width:1.0;fill:none;" width="324" x="350" y="10"/><text fill="#000000" font-family="Calibri" font-size="14" font-weight="bold" lengthAdjust="spacing" textLength="310" x="357" y="30.5352">Connecting to the Database and logging in</text><rect fill="#DDDDDD" height="977.2754" style="stroke:#181818;stroke-width:0.5;" width="667" x="121" y="47.4883"/><text fill="#000000" font-family="Calibri" font-size="13" font-weight="bold" lengthAdjust="spacing" textLength="141" x="384" y="62.0566">Exasol Driver for Lua</text><rect fill="#FFFFFF" height="903.9648" style="stroke:#181818;stroke-width:1.0;" width="10" x="49" y="117.7988"/><rect fill="#FFFFFF" height="80.3105" style="stroke:#181818;stroke-width:1.0;" width="10" x="166" y="143.1094"/><rect fill="#FFFFFF" height="703.5898" style="stroke:#181818;stroke-width:1.0;" width="10" x="334" y="256.7305"/><rect fill="#FFFFFF" height="65" style="stroke:#181818;stroke-width:1.0;" width="10" x="697" y="300.041"/><rect fill="#FFFFFF" height="189.8633" style="stroke:#181818;stroke-width:1.0;" width="10" x="697" y="426.6621"/><rect fill="#FFFFFF" height="146.2422" style="stroke:#181818;stroke-width:1.0;" width="10" x="697" y="726.7676"/><rect fill="#FFFFFF" height="903.9648" style="stroke:#181818;stroke-width:1.0;" width="10" x="854" y="117.7988"/><rect fill="#FFFFFF" height="48.6211" style="stroke:#181818;stroke-width:1.0;" width="10" x="859" y="527.5938"/><rect fill="#FFFFFF" height="79.6211" style="stroke:#181818;stroke-width:1.0;" width="10" x="859" y="760.0781"/><rect height="547.9688" style="stroke:#000000;stroke-width:1.5;fill:none;" width="752.5" x="262.5" y="380.041"/><rect height="142.5527" style="stroke:#000000;stroke-width:1.5;fill:none;" width="352" x="582" y="441.6621"/><line style="stroke:#181818;stroke-width:0.5;fill:none;stroke-dasharray:5.0,5.0;" x1="54" x2="54" y1="107.7988" y2="1030.7637"/><line style="stroke:#181818;stroke-width:0.5;fill:none;stroke-dasharray:5.0,5.0;" x1="171" x2="171" y1="107.7988" y2="1030.7637"/><line style="stroke:#181818;stroke-width:0.5;fill:none;stroke-dasharray:5.0,5.0;" x1="338.5" x2="338.5" y1="184.6094" y2="1030.7637"/><line style="stroke:#181818;stroke-width:0.5;fill:none;stroke-dasharray:5.0,5.0;" x1="547" x2="547" y1="914.5098" y2="1030.7637"/><line style="stroke:#181818;stroke-width:0.5;fill:none;stroke-dasharray:5.0,5.0;" x1="702" x2="702" y1="298.2305" y2="1030.7637"/><line style="stroke:#181818;stroke-width:0.5;fill:none;stroke-dasharray:5.0,5.0;" x1="859" x2="859" y1="107.7988" y2="1030.7637"/><rect fill="#E2E2F0" height="50.9766" rx="2.5" ry="2.5" style="stroke:#181818;stroke-width:0.5;" width="98" x="5" y="55.8223"/><text fill="#000000" font-family="Calibri" font-size="14" font-style="italic" lengthAdjust="spacing" textLength="71" x="18.5" y="78.3574">«external»</text><text fill="#000000" font-family="Calibri" font-size="14" lengthAdjust="spacing" textLength="80" x="14" y="94.8457">Client Code</text><rect fill="#E2E2F0" height="34.4883" rx="2.5" ry="2.5" style="stroke:#181818;stroke-width:0.5;" width="92" x="125" y="72.3105"/><text fill="#000000" font-family="Calibri" font-size="14" lengthAdjust="spacing" textLength="74" x="134" y="94.8457">Entry Point</text><rect fill="#E2E2F0" height="34.4883" rx="2.5" ry="2.5" style="stroke:#181818;stroke-width:0.5;" width="130" x="794" y="72.3105"/><text fill="#000000" font-family="Calibri" font-size="14" lengthAdjust="spacing" textLength="112" x="803" y="94.8457">Exasol Database</text><rect fill="#FFFFFF" height="903.9648" style="stroke:#181818;stroke-width:1.0;" width="10" x="49" y="117.7988"/><rect fill="#FFFFFF" height="80.3105" style="stroke:#181818;stroke-width:1.0;" width="10" x="166" y="143.1094"/><rect fill="#FFFFFF" height="703.5898" style="stroke:#181818;stroke-width:1.0;" width="10" x="334" y="256.7305"/><rect fill="#FFFFFF" height="65" style="stroke:#181818;stroke-width:1.0;" width="10" x="697" y="300.041"/><rect fill="#FFFFFF" height="189.8633" style="stroke:#181818;stroke-width:1.0;" width="10" x="697" y="426.6621"/><rect fill="#FFFFFF" height="146.2422" style="stroke:#181818;stroke-width:1.0;" width="10" x="697" y="726.7676"/><rect fill="#FFFFFF" height="903.9648" style="stroke:#181818;stroke-width:1.0;" width="10" x="854" y="117.7988"/><rect fill="#FFFFFF" height="48.6211" style="stroke:#181818;stroke-width:1.0;" width="10" x="859" y="527.5938"/><rect fill="#FFFFFF" height="79.6211" style="stroke:#181818;stroke-width:1.0;" width="10" x="859" y="760.0781"/><polygon fill="#181818" points="154,139.1094,164,143.1094,154,147.1094" style="stroke:#181818;stroke-width:1.0;"/><line style="stroke:#181818;stroke-width:1.0;" x1="59" x2="160" y1="143.1094" y2="143.1094"/><text fill="#000000" font-family="Calibri" font-size="13" lengthAdjust="spacing" textLength="49" x="68" y="136.3672">exasol()</text><polygon fill="#181818" points="260.5,172.4199,270.5,176.4199,260.5,180.4199" style="stroke:#181818;stroke-width:1.0;"/><line style="stroke:#181818;stroke-width:1.0;" x1="176" x2="266.5" y1="176.4199" y2="176.4199"/><text fill="#000000" font-family="Calibri" font-size="13" lengthAdjust="spacing" textLength="46" x="185" y="169.6777">create()</text><rect fill="#E2E2F0" height="36" rx="2.5" ry="2.5" style="stroke:#181818;stroke-width:0.5;" width="133" x="272.5" y="151.1094"/><ellipse cx="290.5" cy="169.1094" fill="#ADD1B2" rx="11" ry="11" style="stroke:#181818;stroke-width:1.0;"/><path d="M292.9731,175.2524 Q292.3921,175.5513 291.7529,175.7007 Q291.1138,175.8501 290.4082,175.8501 Q287.9014,175.8501 286.5815,174.1982 Q285.2617,172.5464 285.2617,169.4253 Q285.2617,166.2959 286.5815,164.644 Q287.9014,162.9922 290.4082,162.9922 Q291.1138,162.9922 291.7612,163.1416 Q292.4087,163.291 292.9731,163.5898 L292.9731,166.3125 Q292.3423,165.7314 291.7488,165.4617 Q291.1553,165.1919 290.5244,165.1919 Q289.1797,165.1919 288.4949,166.2585 Q287.8101,167.3252 287.8101,169.4253 Q287.8101,171.5171 288.4949,172.5837 Q289.1797,173.6504 290.5244,173.6504 Q291.1553,173.6504 291.7488,173.3806 Q292.3423,173.1108 292.9731,172.5298 Z " fill="#000000"/><text fill="#000000" font-family="Calibri" font-size="14" lengthAdjust="spacing" textLength="87" x="309.5" y="173.6445">Environment</text><polygon fill="#181818" points="70,219.4199,60,223.4199,70,227.4199" style="stroke:#181818;stroke-width:1.0;"/><line style="stroke:#181818;stroke-width:1.0;stroke-dasharray:2.0,2.0;" x1="64" x2="170" y1="223.4199" y2="223.4199"/><text fill="#000000" font-family="Calibri" font-size="13" lengthAdjust="spacing" textLength="79" x="78" y="216.6777">Environment</text><polygon fill="#181818" points="322,252.7305,332,256.7305,322,260.7305" style="stroke:#181818;stroke-width:1.0;"/><line style="stroke:#181818;stroke-width:1.0;" x1="59" x2="328" y1="256.7305" y2="256.7305"/><text fill="#000000" font-family="Calibri" font-size="13" lengthAdjust="spacing" textLength="252" x="68" y="249.9883">connect(host_and_port, user, password)</text><polygon fill="#181818" points="608,286.041,618,290.041,608,294.041" style="stroke:#181818;stroke-width:1.0;"/><line style="stroke:#181818;stroke-width:1.0;" x1="344" x2="614" y1="290.041" y2="290.041"/><text fill="#000000" font-family="Calibri" font-size="13" lengthAdjust="spacing" textLength="75" x="353" y="283.2988">connect(url)</text><rect fill="#E2E2F0" height="36" rx="2.5" ry="2.5" style="stroke:#181818;stroke-width:0.5;" width="164" x="620" y="264.7305"/><ellipse cx="638" cy="282.7305" fill="#ADD1B2" rx="11" ry="11" style="stroke:#181818;stroke-width:1.0;"/><path d="M640.4731,288.8735 Q639.8921,289.1724 639.2529,289.3218 Q638.6138,289.4712 637.9082,289.4712 Q635.4014,289.4712 634.0815,287.8193 Q632.7617,286.1675 632.7617,283.0464 Q632.7617,279.917 634.0815,278.2651 Q635.4014,276.6133 637.9082,276.6133 Q638.6138,276.6133 639.2612,276.7627 Q639.9087,276.9121 640.4731,277.2109 L640.4731,279.9336 Q639.8423,279.3525 639.2488,279.0828 Q638.6553,278.813 638.0244,278.813 Q636.6797,278.813 635.9949,279.8796 Q635.3101,280.9463 635.3101,283.0464 Q635.3101,285.1382 635.9949,286.2048 Q636.6797,287.2715 638.0244,287.2715 Q638.6553,287.2715 639.2488,287.0017 Q639.8423,286.7319 640.4731,286.1509 Z " fill="#000000"/><text fill="#000000" font-family="Calibri" font-size="14" lengthAdjust="spacing" textLength="118" x="657" y="287.2656">ExasolWebsocket</text><polygon fill="#181818" points="842,333.041,852,337.041,842,341.041" style="stroke:#181818;stroke-width:1.0;"/><line style="stroke:#181818;stroke-width:1.0;" x1="707" x2="848" y1="337.041" y2="337.041"/><text fill="#000000" font-family="Calibri" font-size="13" lengthAdjust="spacing" textLength="52" x="716" y="330.2988">Connect</text><polygon fill="#181818" points="718,347.041,708,351.041,718,355.041" style="stroke:#181818;stroke-width:1.0;"/><line style="stroke:#181818;stroke-width:1.0;stroke-dasharray:2.0,2.0;" x1="712" x2="853" y1="351.041" y2="351.041"/><polygon fill="#181818" points="355,361.041,345,365.041,355,369.041" style="stroke:#181818;stroke-width:1.0;"/><line style="stroke:#181818;stroke-width:1.0;stroke-dasharray:2.0,2.0;" x1="349" x2="701" y1="365.041" y2="365.041"/><path d="M262.5,380.041 L349.5,380.041 L349.5,391.3516 L339.5,401.3516 L262.5,401.3516 L262.5,380.041 " fill="#EEEEEE" style="stroke:#000000;stroke-width:1.5;"/><rect fill="none" height="547.9688" style="stroke:#000000;stroke-width:1.5;" width="752.5" x="262.5" y="380.041"/><text fill="#000000" font-family="Calibri" font-size="13" font-weight="bold" lengthAdjust="spacing" textLength="38" x="279.5" y="395.6094">Login</text><polygon fill="#181818" points="685,422.6621,695,426.6621,685,430.6621" style="stroke:#181818;stroke-width:1.0;"/><line style="stroke:#181818;stroke-width:1.0;" x1="344" x2="691" y1="426.6621" y2="426.6621"/><text fill="#000000" font-family="Calibri" font-size="13" lengthAdjust="spacing" textLength="146" x="353" y="419.9199">send_login_command()</text><path d="M582,441.6621 L834,441.6621 L834,452.9727 L824,462.9727 L582,462.9727 L582,441.6621 " fill="#EEEEEE" style="stroke:#000000;stroke-width:1.5;"/><rect fill="none" height="142.5527" style="stroke:#000000;stroke-width:1.5;" width="352" x="582" y="441.6621"/><text fill="#000000" font-family="Calibri" font-size="13" font-weight="bold" lengthAdjust="spacing" textLength="203" x="599" y="457.2305">Websocket Request/Response</text><path d="M592,467.9727 L592,496.9727 L812,496.9727 L812,477.9727 L802,467.9727 L592,467.9727 " fill="#FEFFDD" style="stroke:#181818;stroke-width:0.5;"/><path d="M802,467.9727 L802,477.9727 L812,477.9727 L802,467.9727 " fill="#FEFFDD" style="stroke:#181818;stroke-width:0.5;"/><text fill="#000000" font-family="Calibri" font-size="13" lengthAdjust="spacing" textLength="195" x="600" y="487.541">See details in separate diagram</text><polygon fill="#181818" points="847,523.5938,857,527.5938,847,531.5938" style="stroke:#181818;stroke-width:1.0;"/><line style="stroke:#181818;stroke-width:1.0;" x1="707" x2="853" y1="527.5938" y2="527.5938"/><text fill="#000000" font-family="Calibri" font-size="13" lengthAdjust="spacing" textLength="101" x="716" y="520.8516">Login command</text><polygon fill="#181818" points="718,572.2148,708,576.2148,718,580.2148" style="stroke:#181818;stroke-width:1.0;"/><line style="stroke:#181818;stroke-width:1.0;stroke-dasharray:2.0,2.0;" x1="712" x2="853" y1="576.2148" y2="576.2148"/><text fill="#000000" font-family="Calibri" font-size="13" lengthAdjust="spacing" textLength="96" x="726" y="554.1621">Login response</text><text fill="#000000" font-family="Calibri" font-size="13" lengthAdjust="spacing" textLength="96" x="726" y="569.4727">incl. public key</text><polygon fill="#181818" points="355,612.5254,345,616.5254,355,620.5254" style="stroke:#181818;stroke-width:1.0;"/><line style="stroke:#181818;stroke-width:1.0;stroke-dasharray:2.0,2.0;" x1="349" x2="701" y1="616.5254" y2="616.5254"/><text fill="#000000" font-family="Calibri" font-size="13" lengthAdjust="spacing" textLength="64" x="363" y="609.7832">Public key</text><line style="stroke:#181818;stroke-width:1.0;" x1="344" x2="386" y1="665.1465" y2="665.1465"/><line style="stroke:#181818;stroke-width:1.0;" x1="386" x2="386" y1="665.1465" y2="678.1465"/><line style="stroke:#181818;stroke-width:1.0;" x1="345" x2="386" y1="678.1465" y2="678.1465"/><polygon fill="#181818" points="355,674.1465,345,678.1465,355,682.1465" style="stroke:#181818;stroke-width:1.0;"/><text fill="#000000" font-family="Calibri" font-size="13" lengthAdjust="spacing" textLength="111" x="353" y="643.0938">Encrypt password</text><text fill="#000000" font-family="Calibri" font-size="13" lengthAdjust="spacing" textLength="96" x="353" y="658.4043">with public key</text><polygon fill="#181818" points="685,722.7676,695,726.7676,685,730.7676" style="stroke:#181818;stroke-width:1.0;"/><line style="stroke:#181818;stroke-width:1.0;" x1="344" x2="691" y1="726.7676" y2="726.7676"/><text fill="#000000" font-family="Calibri" font-size="13" lengthAdjust="spacing" textLength="214" x="353" y="704.7148">send_login_credentials(username,</text><text fill="#000000" font-family="Calibri" font-size="13" lengthAdjust="spacing" textLength="133" x="353" y="720.0254">encrypted_password)</text><polygon fill="#181818" points="847,756.0781,857,760.0781,847,764.0781" style="stroke:#181818;stroke-width:1.0;"/><line style="stroke:#181818;stroke-width:1.0;" x1="707" x2="853" y1="760.0781" y2="760.0781"/><text fill="#000000" font-family="Calibri" font-size="13" lengthAdjust="spacing" textLength="71" x="716" y="753.3359">Credentials</text><line style="stroke:#181818;stroke-width:1.0;" x1="869" x2="911" y1="793.3887" y2="793.3887"/><line style="stroke:#181818;stroke-width:1.0;" x1="911" x2="911" y1="793.3887" y2="806.3887"/><line style="stroke:#181818;stroke-width:1.0;" x1="870" x2="911" y1="806.3887" y2="806.3887"/><polygon fill="#181818" points="880,802.3887,870,806.3887,880,810.3887" style="stroke:#181818;stroke-width:1.0;"/><text fill="#000000" font-family="Calibri" font-size="13" lengthAdjust="spacing" textLength="123" x="878" y="786.6465">Validate credentials</text><polygon fill="#181818" points="718,835.6992,708,839.6992,718,843.6992" style="stroke:#181818;stroke-width:1.0;"/><line style="stroke:#181818;stroke-width:1.0;stroke-dasharray:2.0,2.0;" x1="712" x2="853" y1="839.6992" y2="839.6992"/><text fill="#000000" font-family="Calibri" font-size="13" lengthAdjust="spacing" textLength="66" x="726" y="832.957">Session ID</text><polygon fill="#181818" points="355,869.0098,345,873.0098,355,877.0098" style="stroke:#181818;stroke-width:1.0;"/><line style="stroke:#181818;stroke-width:1.0;stroke-dasharray:2.0,2.0;" x1="349" x2="701" y1="873.0098" y2="873.0098"/><text fill="#000000" font-family="Calibri" font-size="13" lengthAdjust="spacing" textLength="66" x="363" y="866.2676">Session ID</text><polygon fill="#181818" points="473,902.3203,483,906.3203,473,910.3203" style="stroke:#181818;stroke-width:1.0;"/><line style="stroke:#181818;stroke-width:1.0;" x1="344" x2="479" y1="906.3203" y2="906.3203"/><text fill="#000000" font-family="Calibri" font-size="13" lengthAdjust="spacing" textLength="113" x="353" y="899.5781">create(session_id)</text><rect fill="#E2E2F0" height="36" rx="2.5" ry="2.5" style="stroke:#181818;stroke-width:0.5;" width="125" x="485" y="881.0098"/><ellipse cx="503" cy="899.0098" fill="#ADD1B2" rx="11" ry="11" style="stroke:#181818;stroke-width:1.0;"/><path d="M505.4731,905.1528 Q504.8921,905.4517 504.2529,905.6011 Q503.6138,905.7505 502.9082,905.7505 Q500.4014,905.7505 499.0815,904.0986 Q497.7617,902.4468 497.7617,899.3257 Q497.7617,896.1963 499.0815,894.5444 Q500.4014,892.8926 502.9082,892.8926 Q503.6138,892.8926 504.2612,893.042 Q504.9087,893.1914 505.4731,893.4902 L505.4731,896.2129 Q504.8423,895.6318 504.2488,895.3621 Q503.6553,895.0923 503.0244,895.0923 Q501.6797,895.0923 500.9949,896.1589 Q500.3101,897.2256 500.3101,899.3257 Q500.3101,901.4175 500.9949,902.4841 Q501.6797,903.5508 503.0244,903.5508 Q503.6553,903.5508 504.2488,903.281 Q504.8423,903.0112 505.4731,902.4302 Z " fill="#000000"/><text fill="#000000" font-family="Calibri" font-size="14" lengthAdjust="spacing" textLength="79" x="522" y="903.5449">Connection</text><polygon fill="#181818" points="70,956.3203,60,960.3203,70,964.3203" style="stroke:#181818;stroke-width:1.0;"/><line style="stroke:#181818;stroke-width:1.0;stroke-dasharray:2.0,2.0;" x1="64" x2="338" y1="960.3203" y2="960.3203"/><text fill="#000000" font-family="Calibri" font-size="13" lengthAdjust="spacing" textLength="70" x="78" y="953.5781">connection</text><rect height="47.4434" style="stroke:#000000;stroke-width:1.5;fill:none;" width="611" x="2" y="968.3203"/><path d="M2,968.3203 L70,968.3203 L70,979.3203 L60,989.3203 L2,989.3203 L2,968.3203 " fill="#EEEEEE" style="stroke:#000000;stroke-width:2.0;"/><text fill="#000000" font-family="Calibri" font-size="13" font-weight="bold" lengthAdjust="spacing" textLength="19" x="17" y="984.8887">ref</text><text fill="#000000" font-family="Calibri" font-size="12" lengthAdjust="spacing" textLength="295" x="160" y="1006.9219">Use connection, e.g. connection:execute(statement)</text><!--MD5=[31024459a962f237656f865bd3337b95]
@startuml seq_connection_create
!include ../clean.skin

title: Connecting to the Database and logging in

participant "Client Code" as client <<external>>
box "Exasol Driver for Lua"
participant "Entry Point"  as entry
participant Environment as env << (C,#ADD1B2) >>
participant Connection as conn << (C,#ADD1B2) >>
participant ExasolWebsocket as ws << (C,#ADD1B2) >>
end box
participant "Exasol Database" as db

activate client
activate db
client -> entry: exasol()
activate entry
create env
entry -> env: create()
client <- - entry: Environment
deactivate entry
client -> env: connect(host_and_port, user, password)
activate env
' [dsn -> req~connect-with-username-password~1 >> impl,utest,itest]
create ws
env -> ws: connect(url)
activate ws
ws -> db: Connect
db - -> ws
ws - -> env
deactivate ws
group Login
    env -> ws: send_login_command()
    activate ws
    group Websocket Request/Response
        note over ws: See details in separate diagram
        ws -> db: Login command
        activate db
        db - -> ws: Login response\nincl. public key
        deactivate db
    end
    ws - -> env: Public key
    deactivate ws
    env -> env: Encrypt password\nwith public key
    env -> ws: send_login_credentials(username,\nencrypted_password)
    activate ws
    ws -> db: Credentials
    activate db
    db -> db: Validate credentials
    db - -> ws: Session ID
    deactivate db
    ws - -> env: Session ID
    deactivate ws
    create conn
    env -> conn: create(session_id)
end
client <- - env: connection
deactivate env
ref over client, conn: Use connection, e.g. connection:execute(statement)
@enduml

@startuml seq_connection_create
hide empty methods
hide empty attributes
skinparam style strictuml
skinparam classAttributeIconSize 0
!pragma horizontalLineBetweenDifferentPackageAllowed

skinparam defaultFontName Calibri

skinparam padding 2

title: Connecting to the Database and logging in

participant "Client Code" as client <<external>>
box "Exasol Driver for Lua"
participant "Entry Point"  as entry
participant Environment as env << (C,#ADD1B2) >>
participant Connection as conn << (C,#ADD1B2) >>
participant ExasolWebsocket as ws << (C,#ADD1B2) >>
end box
participant "Exasol Database" as db

activate client
activate db
client -> entry: exasol()
activate entry
create env
entry -> env: create()
client <- - entry: Environment
deactivate entry
client -> env: connect(host_and_port, user, password)
activate env
create ws
env -> ws: connect(url)
activate ws
ws -> db: Connect
db - -> ws
ws - -> env
deactivate ws
group Login
    env -> ws: send_login_command()
    activate ws
    group Websocket Request/Response
        note over ws: See details in separate diagram
        ws -> db: Login command
        activate db
        db - -> ws: Login response\nincl. public key
        deactivate db
    end
    ws - -> env: Public key
    deactivate ws
    env -> env: Encrypt password\nwith public key
    env -> ws: send_login_credentials(username,\nencrypted_password)
    activate ws
    ws -> db: Credentials
    activate db
    db -> db: Validate credentials
    db - -> ws: Session ID
    deactivate db
    ws - -> env: Session ID
    deactivate ws
    create conn
    env -> conn: create(session_id)
end
client <- - env: connection
deactivate env
ref over client, conn: Use connection, e.g. connection:execute(statement)
@enduml

PlantUML version 1.2022.2(Sat Mar 05 17:30:19 CET 2022)
(GPL source distribution)
Java Runtime: OpenJDK Runtime Environment
JVM: OpenJDK 64-Bit Server VM
Default Encoding: UTF-8
Language: en
Country: DE
--></g></svg>