<?xml version="1.0" encoding="UTF-8" standalone="no"?><svg xmlns="http://www.w3.org/2000/svg" xmlns:xlink="http://www.w3.org/1999/xlink" contentStyleType="text/css" height="291px" preserveAspectRatio="none" style="width:627px;height:291px;background:#FFFFFF;" version="1.1" viewBox="0 0 627 291" width="627px" zoomAndPan="magnify"><defs/><g><rect fill="#FFFFFF" height="208.5527" style="stroke:#181818;stroke-width:1.0;" width="10" x="49" y="66.9766"/><rect fill="#FFFFFF" height="174.2422" style="stroke:#181818;stroke-width:1.0;" width="10" x="199" y="92.2871"/><rect fill="#FFFFFF" height="149.9316" style="stroke:#181818;stroke-width:1.0;" width="10" x="389" y="125.5977"/><rect fill="#FFFFFF" height="208.5527" style="stroke:#181818;stroke-width:1.0;" width="10" x="546" y="66.9766"/><rect fill="#FFFFFF" height="60.3105" style="stroke:#181818;stroke-width:1.0;" width="10" x="551" y="158.9082"/><line style="stroke:#181818;stroke-width:0.5;stroke-dasharray:5.0,5.0;" x1="54" x2="54" y1="56.9766" y2="284.5293"/><line style="stroke:#181818;stroke-width:0.5;stroke-dasharray:5.0,5.0;" x1="203.5" x2="203.5" y1="56.9766" y2="284.5293"/><line style="stroke:#181818;stroke-width:0.5;stroke-dasharray:5.0,5.0;" x1="394" x2="394" y1="56.9766" y2="284.5293"/><line style="stroke:#181818;stroke-width:0.5;stroke-dasharray:5.0,5.0;" x1="551" x2="551" y1="56.9766" y2="284.5293"/><rect fill="#E2E2F0" height="50.9766" rx="2.5" ry="2.5" style="stroke:#181818;stroke-width:0.5;" width="98" x="5" y="5"/><text fill="#000000" font-family="Calibri" font-size="14" font-style="italic" lengthAdjust="spacing" textLength="71" x="18.5" y="27.5352">«external»</text><text fill="#000000" font-family="Calibri" font-size="14" lengthAdjust="spacing" textLength="80" x="14" y="44.0234">Client Code</text><rect fill="#E2E2F0" height="36" rx="2.5" ry="2.5" style="stroke:#181818;stroke-width:0.5;" width="125" x="141.5" y="19.9766"/><ellipse cx="159.5" cy="37.9766" fill="#ADD1B2" rx="11" ry="11" style="stroke:#181818;stroke-width:1.0;"/><path d="M161.9731,44.1196 Q161.3921,44.4185 160.7529,44.5679 Q160.1138,44.7173 159.4082,44.7173 Q156.9014,44.7173 155.5815,43.0654 Q154.2617,41.4136 154.2617,38.2925 Q154.2617,35.1631 155.5815,33.5112 Q156.9014,31.8594 159.4082,31.8594 Q160.1138,31.8594 160.7612,32.0088 Q161.4087,32.1582 161.9731,32.457 L161.9731,35.1797 Q161.3423,34.5986 160.7488,34.3289 Q160.1553,34.0591 159.5244,34.0591 Q158.1797,34.0591 157.4949,35.1257 Q156.8101,36.1924 156.8101,38.2925 Q156.8101,40.3843 157.4949,41.4509 Q158.1797,42.5176 159.5244,42.5176 Q160.1553,42.5176 160.7488,42.2478 Q161.3423,41.978 161.9731,41.397 Z " fill="#000000"/><text fill="#000000" font-family="Calibri" font-size="14" lengthAdjust="spacing" textLength="79" x="178.5" y="42.5117">Connection</text><rect fill="#E2E2F0" height="36" rx="2.5" ry="2.5" style="stroke:#181818;stroke-width:0.5;" width="164" x="312" y="19.9766"/><ellipse cx="330" cy="37.9766" fill="#ADD1B2" rx="11" ry="11" style="stroke:#181818;stroke-width:1.0;"/><path d="M332.4731,44.1196 Q331.8921,44.4185 331.2529,44.5679 Q330.6138,44.7173 329.9082,44.7173 Q327.4014,44.7173 326.0815,43.0654 Q324.7617,41.4136 324.7617,38.2925 Q324.7617,35.1631 326.0815,33.5112 Q327.4014,31.8594 329.9082,31.8594 Q330.6138,31.8594 331.2612,32.0088 Q331.9087,32.1582 332.4731,32.457 L332.4731,35.1797 Q331.8423,34.5986 331.2488,34.3289 Q330.6553,34.0591 330.0244,34.0591 Q328.6797,34.0591 327.9949,35.1257 Q327.3101,36.1924 327.3101,38.2925 Q327.3101,40.3843 327.9949,41.4509 Q328.6797,42.5176 330.0244,42.5176 Q330.6553,42.5176 331.2488,42.2478 Q331.8423,41.978 332.4731,41.397 Z " fill="#000000"/><text fill="#000000" font-family="Calibri" font-size="14" lengthAdjust="spacing" textLength="118" x="349" y="42.5117">ExasolWebsocket</text><rect fill="#E2E2F0" height="34.4883" rx="2.5" ry="2.5" style="stroke:#181818;stroke-width:0.5;" width="130" x="486" y="21.4883"/><text fill="#000000" font-family="Calibri" font-size="14" lengthAdjust="spacing" textLength="112" x="495" y="44.0234">Exasol Database</text><rect fill="#FFFFFF" height="208.5527" style="stroke:#181818;stroke-width:1.0;" width="10" x="49" y="66.9766"/><rect fill="#FFFFFF" height="174.2422" style="stroke:#181818;stroke-width:1.0;" width="10" x="199" y="92.2871"/><rect fill="#FFFFFF" height="149.9316" style="stroke:#181818;stroke-width:1.0;" width="10" x="389" y="125.5977"/><rect fill="#FFFFFF" height="208.5527" style="stroke:#181818;stroke-width:1.0;" width="10" x="546" y="66.9766"/><rect fill="#FFFFFF" height="60.3105" style="stroke:#181818;stroke-width:1.0;" width="10" x="551" y="158.9082"/><polygon fill="#181818" points="187,88.2871,197,92.2871,187,96.2871" style="stroke:#181818;stroke-width:1.0;"/><line style="stroke:#181818;stroke-width:1.0;" x1="59" x2="193" y1="92.2871" y2="92.2871"/><text fill="#000000" font-family="Calibri" font-size="13" lengthAdjust="spacing" textLength="56" x="68" y="85.5449">commit()</text><polygon fill="#181818" points="377,121.5977,387,125.5977,377,129.5977" style="stroke:#181818;stroke-width:1.0;"/><line style="stroke:#181818;stroke-width:1.0;" x1="209" x2="383" y1="125.5977" y2="125.5977"/><text fill="#000000" font-family="Calibri" font-size="13" lengthAdjust="spacing" textLength="157" x="218" y="118.8555">send_execute("COMMIT")</text><polygon fill="#181818" points="539,154.9082,549,158.9082,539,162.9082" style="stroke:#181818;stroke-width:1.0;"/><line style="stroke:#181818;stroke-width:1.0;" x1="399" x2="545" y1="158.9082" y2="158.9082"/><text fill="#000000" font-family="Calibri" font-size="13" lengthAdjust="spacing" textLength="49" x="408" y="152.166">execute</text><line style="stroke:#181818;stroke-width:1.0;" x1="561" x2="603" y1="192.2188" y2="192.2188"/><line style="stroke:#181818;stroke-width:1.0;" x1="603" x2="603" y1="192.2188" y2="205.2188"/><line style="stroke:#181818;stroke-width:1.0;" x1="562" x2="603" y1="205.2188" y2="205.2188"/><polygon fill="#181818" points="572,201.2188,562,205.2188,572,209.2188" style="stroke:#181818;stroke-width:1.0;"/><text fill="#000000" font-family="Calibri" font-size="13" lengthAdjust="spacing" textLength="50" x="570" y="185.4766">Commit</text><polygon fill="#181818" points="410,215.2188,400,219.2188,410,223.2188" style="stroke:#181818;stroke-width:1.0;"/><line style="stroke:#181818;stroke-width:1.0;stroke-dasharray:2.0,2.0;" x1="404" x2="545" y1="219.2188" y2="219.2188"/><polygon fill="#181818" points="220,229.2188,210,233.2188,220,237.2188" style="stroke:#181818;stroke-width:1.0;"/><line style="stroke:#181818;stroke-width:1.0;stroke-dasharray:2.0,2.0;" x1="214" x2="388" y1="233.2188" y2="233.2188"/><polygon fill="#181818" points="70,262.5293,60,266.5293,70,270.5293" style="stroke:#181818;stroke-width:1.0;"/><line style="stroke:#181818;stroke-width:1.0;stroke-dasharray:2.0,2.0;" x1="64" x2="203" y1="266.5293" y2="266.5293"/><text fill="#000000" font-family="Calibri" font-size="13" lengthAdjust="spacing" textLength="112" x="78" y="259.7871">Success (boolean)</text><!--MD5=[07081f8fde01e4c3aed4ce4952e4965e]
@startuml seq_connection_commit
!include ../clean.skin

participant "Client Code" as client <<external>>
participant Connection as conn << (C,#ADD1B2) >>
participant ExasolWebsocket as ws << (C,#ADD1B2) >>
participant "Exasol Database" as db

activate client
activate db

' [dsn -> req~luasql-connection-commit~1 >> impl,utest,itest]
client -> conn: commit()
activate conn
conn -> ws: send_execute("COMMIT")
activate ws

ws -> db: execute
activate db
db -> db: Commit
db - -> ws
deactivate db
ws - -> conn
conn - -> client: Success (boolean)
deactivate conn

@enduml

@startuml seq_connection_commit
hide empty methods
hide empty attributes
skinparam style strictuml
skinparam classAttributeIconSize 0
!pragma horizontalLineBetweenDifferentPackageAllowed

skinparam defaultFontName Calibri

skinparam padding 2

participant "Client Code" as client <<external>>
participant Connection as conn << (C,#ADD1B2) >>
participant ExasolWebsocket as ws << (C,#ADD1B2) >>
participant "Exasol Database" as db

activate client
activate db

client -> conn: commit()
activate conn
conn -> ws: send_execute("COMMIT")
activate ws

ws -> db: execute
activate db
db -> db: Commit
db - -> ws
deactivate db
ws - -> conn
conn - -> client: Success (boolean)
deactivate conn

@enduml

PlantUML version 1.2022.4(Sat Apr 09 15:29:17 CEST 2022)
(GPL source distribution)
Java Runtime: OpenJDK Runtime Environment
JVM: OpenJDK 64-Bit Server VM
Default Encoding: UTF-8
Language: en
Country: DE
--></g></svg>