<?xml version="1.0" encoding="UTF-8" standalone="no"?><svg xmlns="http://www.w3.org/2000/svg" xmlns:xlink="http://www.w3.org/1999/xlink" contentStyleType="text/css" height="344px" preserveAspectRatio="none" style="width:732px;height:344px;background:#FFFFFF;" version="1.1" viewBox="0 0 732 344" width="732px" zoomAndPan="magnify"><defs/><g><rect height="30.4883" style="stroke:#00000000;stroke-width:1.0;fill:none;" width="284" x="227" y="10"/><text fill="#000000" font-family="Calibri" font-size="14" font-weight="bold" lengthAdjust="spacing" textLength="270" x="234" y="30.5352">Setting Autocommit for a Connection</text><rect fill="#FFFFFF" height="219.8633" style="stroke:#181818;stroke-width:1.0;" width="10" x="49" y="108.4648"/><rect fill="#FFFFFF" height="185.5527" style="stroke:#181818;stroke-width:1.0;" width="10" x="235" y="133.7754"/><rect fill="#FFFFFF" height="103.6211" style="stroke:#181818;stroke-width:1.0;" width="10" x="420" y="182.3965"/><rect fill="#FFFFFF" height="219.8633" style="stroke:#181818;stroke-width:1.0;" width="10" x="577" y="108.4648"/><rect fill="#FFFFFF" height="75.6211" style="stroke:#181818;stroke-width:1.0;" width="10" x="582" y="196.3965"/><line style="stroke:#181818;stroke-width:0.5;stroke-dasharray:5.0,5.0;" x1="54" x2="54" y1="98.4648" y2="337.3281"/><line style="stroke:#181818;stroke-width:0.5;stroke-dasharray:5.0,5.0;" x1="239.5" x2="239.5" y1="98.4648" y2="337.3281"/><line style="stroke:#181818;stroke-width:0.5;stroke-dasharray:5.0,5.0;" x1="425" x2="425" y1="98.4648" y2="337.3281"/><line style="stroke:#181818;stroke-width:0.5;stroke-dasharray:5.0,5.0;" x1="582" x2="582" y1="98.4648" y2="337.3281"/><rect fill="#E2E2F0" height="50.9766" rx="2.5" ry="2.5" style="stroke:#181818;stroke-width:0.5;" width="98" x="5" y="46.4883"/><text fill="#000000" font-family="Calibri" font-size="14" font-style="italic" lengthAdjust="spacing" textLength="71" x="18.5" y="69.0234">«external»</text><text fill="#000000" font-family="Calibri" font-size="14" lengthAdjust="spacing" textLength="80" x="14" y="85.5117">Client Code</text><rect fill="#E2E2F0" height="36" rx="2.5" ry="2.5" style="stroke:#181818;stroke-width:0.5;" width="125" x="177.5" y="61.4648"/><ellipse cx="195.5" cy="79.4648" fill="#ADD1B2" rx="11" ry="11" style="stroke:#181818;stroke-width:1.0;"/><path d="M197.9731,85.6079 Q197.3921,85.9067 196.7529,86.0562 Q196.1138,86.2056 195.4082,86.2056 Q192.9014,86.2056 191.5815,84.5537 Q190.2617,82.9019 190.2617,79.7808 Q190.2617,76.6514 191.5815,74.9995 Q192.9014,73.3477 195.4082,73.3477 Q196.1138,73.3477 196.7612,73.4971 Q197.4087,73.6465 197.9731,73.9453 L197.9731,76.668 Q197.3423,76.0869 196.7488,75.8171 Q196.1553,75.5474 195.5244,75.5474 Q194.1797,75.5474 193.4949,76.614 Q192.8101,77.6807 192.8101,79.7808 Q192.8101,81.8726 193.4949,82.9392 Q194.1797,84.0059 195.5244,84.0059 Q196.1553,84.0059 196.7488,83.7361 Q197.3423,83.4663 197.9731,82.8853 Z " fill="#000000"/><text fill="#000000" font-family="Calibri" font-size="14" lengthAdjust="spacing" textLength="79" x="214.5" y="84">Connection</text><rect fill="#E2E2F0" height="36" rx="2.5" ry="2.5" style="stroke:#181818;stroke-width:0.5;" width="164" x="343" y="61.4648"/><ellipse cx="361" cy="79.4648" fill="#ADD1B2" rx="11" ry="11" style="stroke:#181818;stroke-width:1.0;"/><path d="M363.4731,85.6079 Q362.8921,85.9067 362.2529,86.0562 Q361.6138,86.2056 360.9082,86.2056 Q358.4014,86.2056 357.0815,84.5537 Q355.7617,82.9019 355.7617,79.7808 Q355.7617,76.6514 357.0815,74.9995 Q358.4014,73.3477 360.9082,73.3477 Q361.6138,73.3477 362.2612,73.4971 Q362.9087,73.6465 363.4731,73.9453 L363.4731,76.668 Q362.8423,76.0869 362.2488,75.8171 Q361.6553,75.5474 361.0244,75.5474 Q359.6797,75.5474 358.9949,76.614 Q358.3101,77.6807 358.3101,79.7808 Q358.3101,81.8726 358.9949,82.9392 Q359.6797,84.0059 361.0244,84.0059 Q361.6553,84.0059 362.2488,83.7361 Q362.8423,83.4663 363.4731,82.8853 Z " fill="#000000"/><text fill="#000000" font-family="Calibri" font-size="14" lengthAdjust="spacing" textLength="118" x="380" y="84">ExasolWebsocket</text><rect fill="#E2E2F0" height="34.4883" rx="2.5" ry="2.5" style="stroke:#181818;stroke-width:0.5;" width="130" x="517" y="62.9766"/><text fill="#000000" font-family="Calibri" font-size="14" lengthAdjust="spacing" textLength="112" x="526" y="85.5117">Exasol Database</text><rect fill="#FFFFFF" height="219.8633" style="stroke:#181818;stroke-width:1.0;" width="10" x="49" y="108.4648"/><rect fill="#FFFFFF" height="185.5527" style="stroke:#181818;stroke-width:1.0;" width="10" x="235" y="133.7754"/><rect fill="#FFFFFF" height="103.6211" style="stroke:#181818;stroke-width:1.0;" width="10" x="420" y="182.3965"/><rect fill="#FFFFFF" height="219.8633" style="stroke:#181818;stroke-width:1.0;" width="10" x="577" y="108.4648"/><rect fill="#FFFFFF" height="75.6211" style="stroke:#181818;stroke-width:1.0;" width="10" x="582" y="196.3965"/><polygon fill="#181818" points="223,129.7754,233,133.7754,223,137.7754" style="stroke:#181818;stroke-width:1.0;"/><line style="stroke:#181818;stroke-width:1.0;" x1="59" x2="229" y1="133.7754" y2="133.7754"/><text fill="#000000" font-family="Calibri" font-size="13" lengthAdjust="spacing" textLength="153" x="68" y="127.0332">setautocommit(boolean)</text><polygon fill="#181818" points="408,178.3965,418,182.3965,408,186.3965" style="stroke:#181818;stroke-width:1.0;"/><line style="stroke:#181818;stroke-width:1.0;" x1="245" x2="414" y1="182.3965" y2="182.3965"/><text fill="#000000" font-family="Calibri" font-size="13" lengthAdjust="spacing" textLength="121" x="254" y="160.3438">send_set_attribute(</text><text fill="#000000" font-family="Calibri" font-size="13" lengthAdjust="spacing" textLength="152" x="254" y="175.6543">autocommit=true/false)</text><polygon fill="#181818" points="570,192.3965,580,196.3965,570,200.3965" style="stroke:#181818;stroke-width:1.0;"/><line style="stroke:#181818;stroke-width:1.0;" x1="430" x2="576" y1="196.3965" y2="196.3965"/><line style="stroke:#181818;stroke-width:1.0;" x1="592" x2="634" y1="245.0176" y2="245.0176"/><line style="stroke:#181818;stroke-width:1.0;" x1="634" x2="634" y1="245.0176" y2="258.0176"/><line style="stroke:#181818;stroke-width:1.0;" x1="593" x2="634" y1="258.0176" y2="258.0176"/><polygon fill="#181818" points="603,254.0176,593,258.0176,603,262.0176" style="stroke:#181818;stroke-width:1.0;"/><text fill="#000000" font-family="Calibri" font-size="13" lengthAdjust="spacing" textLength="124" x="601" y="222.9648">Update autocommit</text><text fill="#000000" font-family="Calibri" font-size="13" lengthAdjust="spacing" textLength="113" x="601" y="238.2754">status for session</text><polygon fill="#181818" points="441,268.0176,431,272.0176,441,276.0176" style="stroke:#181818;stroke-width:1.0;"/><line style="stroke:#181818;stroke-width:1.0;stroke-dasharray:2.0,2.0;" x1="435" x2="576" y1="272.0176" y2="272.0176"/><polygon fill="#181818" points="256,282.0176,246,286.0176,256,290.0176" style="stroke:#181818;stroke-width:1.0;"/><line style="stroke:#181818;stroke-width:1.0;" x1="250" x2="424" y1="286.0176" y2="286.0176"/><polygon fill="#181818" points="70,315.3281,60,319.3281,70,323.3281" style="stroke:#181818;stroke-width:1.0;"/><line style="stroke:#181818;stroke-width:1.0;stroke-dasharray:2.0,2.0;" x1="64" x2="239" y1="319.3281" y2="319.3281"/><text fill="#000000" font-family="Calibri" font-size="13" lengthAdjust="spacing" textLength="112" x="78" y="312.5859">Success (boolean)</text><!--MD5=[f66383c0848c0558787cba55ad4b6905]
@startuml seq_connection_setautocommit
!include ../clean.skin

title: Setting Autocommit for a Connection

participant "Client Code" as client <<external>>
participant Connection as conn << (C,#ADD1B2) >>
participant ExasolWebsocket as ws << (C,#ADD1B2) >>
participant "Exasol Database" as db

activate client
activate db

client -> conn: setautocommit(boolean)
activate conn
conn -> ws : send_set_attribute(\nautocommit=true/false)
activate ws
ws -> db
activate db
db -> db : Update autocommit\nstatus for session
db - -> ws
deactivate db
ws -> conn
deactivate ws
conn - -> client: Success (boolean)
deactivate conn

@enduml

@startuml seq_connection_setautocommit
hide empty methods
hide empty attributes
skinparam style strictuml
skinparam classAttributeIconSize 0
!pragma horizontalLineBetweenDifferentPackageAllowed

skinparam defaultFontName Calibri

skinparam padding 2

title: Setting Autocommit for a Connection

participant "Client Code" as client <<external>>
participant Connection as conn << (C,#ADD1B2) >>
participant ExasolWebsocket as ws << (C,#ADD1B2) >>
participant "Exasol Database" as db

activate client
activate db

client -> conn: setautocommit(boolean)
activate conn
conn -> ws : send_set_attribute(\nautocommit=true/false)
activate ws
ws -> db
activate db
db -> db : Update autocommit\nstatus for session
db - -> ws
deactivate db
ws -> conn
deactivate ws
conn - -> client: Success (boolean)
deactivate conn

@enduml

PlantUML version 1.2022.2(Sat Mar 05 17:30:19 CET 2022)
(GPL source distribution)
Java Runtime: OpenJDK Runtime Environment
JVM: OpenJDK 64-Bit Server VM
Default Encoding: UTF-8
Language: en
Country: DE
--></g></svg>