<?plantuml 1.2026.2?><svg xmlns="http://www.w3.org/2000/svg" xmlns:xlink="http://www.w3.org/1999/xlink" contentStyleType="text/css" data-diagram-type="SEQUENCE" height="2195px" preserveAspectRatio="none" style="width:1256px;height:2195px;background:#FFFFFF;" version="1.1" viewBox="0 0 1256 2195" width="1256px" zoomAndPan="magnify"><defs/><g><rect fill="#DDDDDD" height="2176.4719" style="stroke:#181818;stroke-width:0.5;" width="792.2527" x="119.1377" y="6"/><text fill="#000000" font-family="Calibri" font-size="13" font-weight="bold" lengthAdjust="spacing" textLength="133.6596" x="448.4343" y="21.897">Exasol Driver for Lua</text><g><title>..external..</title><rect fill="#FFFFFF" height="2080.6301" style="stroke:#181818;stroke-width:1;" width="10" x="61.5688" y="98.8419"/></g><g><title>C </title><rect fill="#FFFFFF" height="1110.9263" style="stroke:#181818;stroke-width:1;" width="10" x="178.6505" y="1059.5456"/></g><g><title>C </title><rect fill="#FFFFFF" height="1039.5143" style="stroke:#181818;stroke-width:1;" width="10" x="329.0032" y="1095.2516"/></g><g><title>C </title><rect fill="#FFFFFF" height="28" style="stroke:#181818;stroke-width:1;" width="10" x="334.0032" y="1138.9576"/></g><g><title>C </title><rect fill="#FFFFFF" height="28" style="stroke:#181818;stroke-width:1;" width="10" x="334.0032" y="2064.0599"/></g><g><title>C </title><rect fill="#FFFFFF" height="859.5857" style="stroke:#181818;stroke-width:1;" width="10" x="507.7203" y="157.2539"/></g><g><title>C </title><rect fill="#FFFFFF" height="792.9842" style="stroke:#181818;stroke-width:1;" width="10" x="507.7203" y="1209.6637"/></g><g><title>C </title><rect fill="#FFFFFF" height="92.706" style="stroke:#181818;stroke-width:1;" width="10" x="667.1721" y="1781.8238"/></g><g><title>C </title><rect fill="#FFFFFF" height="28" style="stroke:#181818;stroke-width:1;" width="10" x="672.1721" y="1825.5298"/></g><g><title>C </title><rect fill="#FFFFFF" height="14" style="stroke:#181818;stroke-width:1;" width="10" x="667.1721" y="1952.9418"/></g><g><title>..Third party library..</title><rect fill="#FFFFFF" height="730.3997" style="stroke:#181818;stroke-width:1;" width="10" x="829.9777" y="258.7338"/></g><g><title>..Third party library..</title><rect fill="#FFFFFF" height="28" style="stroke:#181818;stroke-width:1;" width="10" x="834.9777" y="302.4398"/></g><g><title>..Third party library..</title><rect fill="#FFFFFF" height="28" style="stroke:#181818;stroke-width:1;" width="10" x="834.9777" y="381.1459"/></g><g><title>..Third party library..</title><rect fill="#FFFFFF" height="28" style="stroke:#181818;stroke-width:1;" width="10" x="834.9777" y="512.2458"/></g><g><title>..Third party library..</title><rect fill="#FFFFFF" height="28" style="stroke:#181818;stroke-width:1;" width="10" x="834.9777" y="625.6397"/></g><g><title>..Third party library..</title><rect fill="#FFFFFF" height="28" style="stroke:#181818;stroke-width:1;" width="10" x="834.9777" y="761.0336"/></g><g><title>..Third party library..</title><rect fill="#FFFFFF" height="28" style="stroke:#181818;stroke-width:1;" width="10" x="834.9777" y="903.4276"/></g><g><title>..Third party library..</title><rect fill="#FFFFFF" height="146.118" style="stroke:#181818;stroke-width:1;" width="10" x="829.9777" y="1245.3697"/></g><g><title>..Third party library..</title><rect fill="#FFFFFF" height="28" style="stroke:#181818;stroke-width:1;" width="10" x="834.9777" y="1306.7817"/></g><g><title>..Third party library..</title><rect fill="#FFFFFF" height="338.9421" style="stroke:#181818;stroke-width:1;" width="10" x="829.9777" y="1571.2937"/></g><g><title>..Third party library..</title><rect fill="#FFFFFF" height="224.8241" style="stroke:#181818;stroke-width:1;" width="10" x="834.9777" y="1649.7057"/></g><g><title>..Third party library..</title><rect fill="#FFFFFF" height="28" style="stroke:#181818;stroke-width:1;" width="10" x="839.9777" y="1711.1178"/></g><g><title>Exasol Database</title><rect fill="#FFFFFF" height="2080.6301" style="stroke:#181818;stroke-width:1;" width="10" x="1079.4748" y="98.8419"/></g><g><title>Exasol Database</title><rect fill="#FFFFFF" height="272.218" style="stroke:#181818;stroke-width:1;" width="10" x="1084.4748" y="1377.4877"/></g><g><title>Exasol Database</title><rect fill="#FFFFFF" height="28" style="stroke:#181818;stroke-width:1;" width="10" x="1089.4748" y="1465.8998"/></g><rect fill="none" height="918.9977" style="stroke:#000000;stroke-width:1.5;" width="1099.4748" x="10" y="105.8419"/><rect fill="none" height="550.9877" style="stroke:#000000;stroke-width:1.5;" width="665.6784" x="433.7964" y="431.1459"/><rect fill="none" height="277.4939" style="stroke:#000000;stroke-width:1.5;" width="645.6784" x="443.7964" y="562.2458"/><rect fill="none" height="511.7481" style="stroke:#000000;stroke-width:1.5;" width="816.6355" x="433.7964" y="1406.4877"/><rect fill="none" height="99.0999" style="stroke:#000000;stroke-width:1.5;" width="473.594" x="443.7964" y="1515.8998"/><g class="participant-lifeline" data-entity-uid="part1" data-qualified-name="client" id="part1-lifeline"><g><title>..external..</title><rect fill="#000000" fill-opacity="0.00000" height="2099.6301" width="8" x="62.5688" y="88.8419"/><line style="stroke:#181818;stroke-width:0.5;stroke-dasharray:5,5;" x1="66" x2="66" y1="88.8419" y2="2188.4719"/></g></g><g class="participant-lifeline" data-entity-uid="part2" data-qualified-name="conn" id="part2-lifeline"><g><title>C </title><rect fill="#000000" fill-opacity="0.00000" height="2099.6301" width="8" x="179.6505" y="88.8419"/><line style="stroke:#181818;stroke-width:0.5;stroke-dasharray:5,5;" x1="183.1377" x2="183.1377" y1="88.8419" y2="2188.4719"/></g></g><g class="participant-lifeline" data-entity-uid="part3" data-qualified-name="exaws" id="part3-lifeline"><g><title>C </title><rect fill="#000000" fill-opacity="0.00000" height="2099.6301" width="8" x="330.0032" y="88.8419"/><line style="stroke:#181818;stroke-width:0.5;stroke-dasharray:5,5;" x1="333.1634" x2="333.1634" y1="88.8419" y2="2188.4719"/></g></g><g class="participant-lifeline" data-entity-uid="part4" data-qualified-name="ws" id="part4-lifeline"><g><title>C </title><rect fill="#000000" fill-opacity="0.00000" height="2099.6301" width="8" x="508.7203" y="88.8419"/><line style="stroke:#181818;stroke-width:0.5;stroke-dasharray:5,5;" x1="511.7964" x2="511.7964" y1="88.8419" y2="2188.4719"/></g></g><g class="participant-lifeline" data-entity-uid="part5" data-qualified-name="msghandler" id="part5-lifeline"><g><title>C </title><rect fill="#000000" fill-opacity="0.00000" height="1989.1841" width="8" x="668.1721" y="199.2878"/><line style="stroke:#181818;stroke-width:0.5;stroke-dasharray:5,5;" x1="671.7793" x2="671.7793" y1="199.2878" y2="2188.4719"/></g></g><g class="participant-lifeline" data-entity-uid="part6" data-qualified-name="luws" id="part6-lifeline"><g><title>..Third party library..</title><rect fill="#000000" fill-opacity="0.00000" height="2099.6301" width="8" x="830.9777" y="88.8419"/><line style="stroke:#181818;stroke-width:0.5;stroke-dasharray:5,5;" x1="834.5649" x2="834.5649" y1="88.8419" y2="2188.4719"/></g></g><g class="participant-lifeline" data-entity-uid="part7" data-qualified-name="db" id="part7-lifeline"><g><title>Exasol Database</title><rect fill="#000000" fill-opacity="0.00000" height="2099.6301" width="8" x="1080.4748" y="88.8419"/><line style="stroke:#181818;stroke-width:0.5;stroke-dasharray:5,5;" x1="1083.715" x2="1083.715" y1="88.8419" y2="2188.4719"/></g></g><g class="participant participant-head" data-entity-uid="part1" data-qualified-name="client" id="part1-head"><rect fill="#E2E2F0" height="56.1358" rx="2.5" ry="2.5" style="stroke:#181818;stroke-width:0.5;" width="93.1377" x="20" y="31.706"/><text fill="#000000" font-family="Calibri" font-size="14" font-style="italic" lengthAdjust="spacing" textLength="63.9798" x="34.579" y="55.672">&#171;external&#187;</text><text fill="#000000" font-family="Calibri" font-size="14" lengthAdjust="spacing" textLength="75.1377" x="29" y="74.7399">Client Code</text></g><g class="participant participant-head" data-entity-uid="part2" data-qualified-name="conn" id="part2-head"><rect fill="#E2E2F0" height="37.0679" rx="2.5" ry="2.5" style="stroke:#181818;stroke-width:0.5;" width="121.0257" x="123.1377" y="50.7739"/><ellipse cx="141.1377" cy="68.7739" fill="#ADD1B2" rx="11" ry="11" style="stroke:#181818;stroke-width:1;"/><path d="M141.2471,64.0552 Q140.3252,64.0552 139.5908,64.3677 Q138.8721,64.6802 138.3721,65.2739 Q137.8721,65.8521 137.5908,66.7271 Q137.3252,67.6021 137.3252,68.6958 Q137.3252,70.1333 137.7627,71.1802 Q138.2158,72.2271 139.0596,72.7739 Q139.9189,73.3208 141.2314,73.3208 Q142.0127,73.3208 142.7002,73.1958 Q143.4033,73.0552 144.4033,72.7427 L144.4033,74.6177 Q143.5439,74.9458 142.7783,75.0708 Q142.0283,75.1958 141.0127,75.1958 Q139.0908,75.1958 137.7783,74.3989 Q136.4814,73.5864 135.8252,72.1177 Q135.1689,70.6333 135.1689,68.6646 Q135.1689,67.2427 135.5596,66.0708 Q135.9658,64.8833 136.7471,64.0083 Q137.5283,63.1333 138.6689,62.6646 Q139.8096,62.1802 141.2783,62.1802 Q142.2314,62.1802 143.1221,62.3833 Q144.0283,62.5708 144.9658,63.0396 L144.1377,64.8208 Q143.3564,64.4458 142.7002,64.2583 Q142.0439,64.0552 141.2471,64.0552 Z " fill="#000000"/><text fill="#000000" font-family="Calibri" font-size="14" lengthAdjust="spacing" textLength="75.0257" x="160.1377" y="74.7399">Connection</text></g><g class="participant participant-head" data-entity-uid="part3" data-qualified-name="exaws" id="part3-head"><rect fill="#E2E2F0" height="37.0679" rx="2.5" ry="2.5" style="stroke:#181818;stroke-width:0.5;" width="159.6796" x="254.1634" y="50.7739"/><ellipse cx="272.1634" cy="68.7739" fill="#ADD1B2" rx="11" ry="11" style="stroke:#181818;stroke-width:1;"/><path d="M272.2728,64.0552 Q271.3509,64.0552 270.6165,64.3677 Q269.8978,64.6802 269.3978,65.2739 Q268.8978,65.8521 268.6165,66.7271 Q268.3509,67.6021 268.3509,68.6958 Q268.3509,70.1333 268.7884,71.1802 Q269.2415,72.2271 270.0853,72.7739 Q270.9446,73.3208 272.2571,73.3208 Q273.0384,73.3208 273.7259,73.1958 Q274.429,73.0552 275.429,72.7427 L275.429,74.6177 Q274.5696,74.9458 273.804,75.0708 Q273.054,75.1958 272.0384,75.1958 Q270.1165,75.1958 268.804,74.3989 Q267.5071,73.5864 266.8509,72.1177 Q266.1946,70.6333 266.1946,68.6646 Q266.1946,67.2427 266.5853,66.0708 Q266.9915,64.8833 267.7728,64.0083 Q268.554,63.1333 269.6946,62.6646 Q270.8353,62.1802 272.304,62.1802 Q273.2571,62.1802 274.1478,62.3833 Q275.054,62.5708 275.9915,63.0396 L275.1634,64.8208 Q274.3821,64.4458 273.7259,64.2583 Q273.0696,64.0552 272.2728,64.0552 Z " fill="#000000"/><text fill="#000000" font-family="Calibri" font-size="14" lengthAdjust="spacing" textLength="113.6796" x="291.1634" y="74.7399">ExasolWebsocket</text></g><g class="participant participant-head" data-entity-uid="part4" data-qualified-name="ws" id="part4-head"><rect fill="#E2E2F0" height="37.0679" rx="2.5" ry="2.5" style="stroke:#181818;stroke-width:0.5;" width="117.8477" x="453.7964" y="50.7739"/><ellipse cx="471.7964" cy="68.7739" fill="#ADD1B2" rx="11" ry="11" style="stroke:#181818;stroke-width:1;"/><path d="M471.9058,64.0552 Q470.9839,64.0552 470.2496,64.3677 Q469.5308,64.6802 469.0308,65.2739 Q468.5308,65.8521 468.2496,66.7271 Q467.9839,67.6021 467.9839,68.6958 Q467.9839,70.1333 468.4214,71.1802 Q468.8746,72.2271 469.7183,72.7739 Q470.5777,73.3208 471.8902,73.3208 Q472.6714,73.3208 473.3589,73.1958 Q474.0621,73.0552 475.0621,72.7427 L475.0621,74.6177 Q474.2027,74.9458 473.4371,75.0708 Q472.6871,75.1958 471.6714,75.1958 Q469.7496,75.1958 468.4371,74.3989 Q467.1402,73.5864 466.4839,72.1177 Q465.8277,70.6333 465.8277,68.6646 Q465.8277,67.2427 466.2183,66.0708 Q466.6246,64.8833 467.4058,64.0083 Q468.1871,63.1333 469.3277,62.6646 Q470.4683,62.1802 471.9371,62.1802 Q472.8902,62.1802 473.7808,62.3833 Q474.6871,62.5708 475.6246,63.0396 L474.7964,64.8208 Q474.0152,64.4458 473.3589,64.2583 Q472.7027,64.0552 471.9058,64.0552 Z " fill="#000000"/><text fill="#000000" font-family="Calibri" font-size="14" lengthAdjust="spacing" textLength="71.8477" x="490.7964" y="74.7399">Websocket</text></g><g class="participant participant-head" data-entity-uid="part6" data-qualified-name="luws" id="part6-head"><rect fill="#E2E2F0" height="56.1358" rx="2.5" ry="2.5" style="stroke:#181818;stroke-width:0.5;" width="144.8255" x="762.5649" y="31.706"/><text fill="#000000" font-family="Calibri" font-size="14" font-style="italic" lengthAdjust="spacing" textLength="126.8255" x="771.5649" y="55.672">&#171;Third party library&#187;</text><text fill="#000000" font-family="Calibri" font-size="14" lengthAdjust="spacing" textLength="83.6357" x="793.1598" y="74.7399">LuWS Socket</text></g><g class="participant participant-head" data-entity-uid="part7" data-qualified-name="db" id="part7-head"><rect fill="#E2E2F0" height="37.0679" rx="2.5" ry="2.5" style="stroke:#181818;stroke-width:0.5;" width="125.5196" x="1021.715" y="50.7739"/><text fill="#000000" font-family="Calibri" font-size="14" lengthAdjust="spacing" textLength="107.5196" x="1030.715" y="74.7399">Exasol Database</text></g><g><title>..external..</title><rect fill="#FFFFFF" height="2080.6301" style="stroke:#181818;stroke-width:1;" width="10" x="61.5688" y="98.8419"/></g><g><title>C </title><rect fill="#FFFFFF" height="1110.9263" style="stroke:#181818;stroke-width:1;" width="10" x="178.6505" y="1059.5456"/></g><g><title>C </title><rect fill="#FFFFFF" height="1039.5143" style="stroke:#181818;stroke-width:1;" width="10" x="329.0032" y="1095.2516"/></g><g><title>C </title><rect fill="#FFFFFF" height="28" style="stroke:#181818;stroke-width:1;" width="10" x="334.0032" y="1138.9576"/></g><g><title>C </title><rect fill="#FFFFFF" height="28" style="stroke:#181818;stroke-width:1;" width="10" x="334.0032" y="2064.0599"/></g><g><title>C </title><rect fill="#FFFFFF" height="859.5857" style="stroke:#181818;stroke-width:1;" width="10" x="507.7203" y="157.2539"/></g><g><title>C </title><rect fill="#FFFFFF" height="792.9842" style="stroke:#181818;stroke-width:1;" width="10" x="507.7203" y="1209.6637"/></g><g><title>C </title><rect fill="#FFFFFF" height="92.706" style="stroke:#181818;stroke-width:1;" width="10" x="667.1721" y="1781.8238"/></g><g><title>C </title><rect fill="#FFFFFF" height="28" style="stroke:#181818;stroke-width:1;" width="10" x="672.1721" y="1825.5298"/></g><g><title>C </title><rect fill="#FFFFFF" height="14" style="stroke:#181818;stroke-width:1;" width="10" x="667.1721" y="1952.9418"/></g><g><title>..Third party library..</title><rect fill="#FFFFFF" height="730.3997" style="stroke:#181818;stroke-width:1;" width="10" x="829.9777" y="258.7338"/></g><g><title>..Third party library..</title><rect fill="#FFFFFF" height="28" style="stroke:#181818;stroke-width:1;" width="10" x="834.9777" y="302.4398"/></g><g><title>..Third party library..</title><rect fill="#FFFFFF" height="28" style="stroke:#181818;stroke-width:1;" width="10" x="834.9777" y="381.1459"/></g><g><title>..Third party library..</title><rect fill="#FFFFFF" height="28" style="stroke:#181818;stroke-width:1;" width="10" x="834.9777" y="512.2458"/></g><g><title>..Third party library..</title><rect fill="#FFFFFF" height="28" style="stroke:#181818;stroke-width:1;" width="10" x="834.9777" y="625.6397"/></g><g><title>..Third party library..</title><rect fill="#FFFFFF" height="28" style="stroke:#181818;stroke-width:1;" width="10" x="834.9777" y="761.0336"/></g><g><title>..Third party library..</title><rect fill="#FFFFFF" height="28" style="stroke:#181818;stroke-width:1;" width="10" x="834.9777" y="903.4276"/></g><g><title>..Third party library..</title><rect fill="#FFFFFF" height="146.118" style="stroke:#181818;stroke-width:1;" width="10" x="829.9777" y="1245.3697"/></g><g><title>..Third party library..</title><rect fill="#FFFFFF" height="28" style="stroke:#181818;stroke-width:1;" width="10" x="834.9777" y="1306.7817"/></g><g><title>..Third party library..</title><rect fill="#FFFFFF" height="338.9421" style="stroke:#181818;stroke-width:1;" width="10" x="829.9777" y="1571.2937"/></g><g><title>..Third party library..</title><rect fill="#FFFFFF" height="224.8241" style="stroke:#181818;stroke-width:1;" width="10" x="834.9777" y="1649.7057"/></g><g><title>..Third party library..</title><rect fill="#FFFFFF" height="28" style="stroke:#181818;stroke-width:1;" width="10" x="839.9777" y="1711.1178"/></g><g><title>Exasol Database</title><rect fill="#FFFFFF" height="2080.6301" style="stroke:#181818;stroke-width:1;" width="10" x="1079.4748" y="98.8419"/></g><g><title>Exasol Database</title><rect fill="#FFFFFF" height="272.218" style="stroke:#181818;stroke-width:1;" width="10" x="1084.4748" y="1377.4877"/></g><g><title>Exasol Database</title><rect fill="#FFFFFF" height="28" style="stroke:#181818;stroke-width:1;" width="10" x="1089.4748" y="1465.8998"/></g><path d="M10,105.8419 L173.4424,105.8419 L173.4424,119.5479 L163.4424,129.5479 L10,129.5479 L10,105.8419" fill="#EEEEEE" style="stroke:#000000;stroke-width:1.5;"/><rect fill="none" height="918.9977" style="stroke:#000000;stroke-width:1.5;" width="1099.4748" x="10" y="105.8419"/><text fill="#000000" font-family="Calibri" font-size="13" font-weight="bold" lengthAdjust="spacing" textLength="114.4424" x="27" y="122.7389">Initial Connection</text><g class="message" data-entity-1="part1" data-entity-2="part4" id="msg1"><polygon fill="#181818" points="495.7203,153.2539,505.7203,157.2539,495.7203,161.2539" style="stroke:#181818;stroke-width:1;"/><line style="stroke:#181818;stroke-width:1;" x1="71.5688" x2="501.7203" y1="157.2539" y2="157.2539"/><text fill="#000000" font-family="Calibri" font-size="13" lengthAdjust="spacing" textLength="72.9951" x="80.5688" y="149.4449">connect(url)</text></g><g class="message" data-entity-1="part4" data-entity-2="part5" id="msg2"><polygon fill="#181818" points="579.7793,188.9599,589.7793,192.9599,579.7793,196.9599" style="stroke:#181818;stroke-width:1;"/><line style="stroke:#181818;stroke-width:1;" x1="517.7203" x2="585.7793" y1="192.9599" y2="192.9599"/><text fill="#000000" font-family="Calibri" font-size="13" lengthAdjust="spacing" textLength="46.059" x="526.7203" y="185.1509">create()</text></g><rect fill="#E2E2F0" height="37.0679" rx="2.5" ry="2.5" style="stroke:#181818;stroke-width:0.5;" width="160.7856" x="591.7793" y="165.2539"/><ellipse cx="609.7793" cy="183.2539" fill="#ADD1B2" rx="11" ry="11" style="stroke:#181818;stroke-width:1;"/><path d="M609.8887,178.5351 Q608.9668,178.5351 608.2325,178.8476 Q607.5137,179.1601 607.0137,179.7539 Q606.5137,180.332 606.2325,181.207 Q605.9668,182.082 605.9668,183.1758 Q605.9668,184.6133 606.4043,185.6601 Q606.8575,186.707 607.7012,187.2539 Q608.5606,187.8008 609.8731,187.8008 Q610.6543,187.8008 611.3418,187.6758 Q612.045,187.5351 613.045,187.2226 L613.045,189.0976 Q612.1856,189.4258 611.42,189.5508 Q610.67,189.6758 609.6543,189.6758 Q607.7325,189.6758 606.42,188.8789 Q605.1231,188.0664 604.4668,186.5976 Q603.8106,185.1133 603.8106,183.1445 Q603.8106,181.7226 604.2012,180.5508 Q604.6075,179.3633 605.3887,178.4883 Q606.17,177.6133 607.3106,177.1445 Q608.4512,176.6601 609.92,176.6601 Q610.8731,176.6601 611.7637,176.8633 Q612.67,177.0508 613.6075,177.5195 L612.7793,179.3008 Q611.9981,178.9258 611.3418,178.7383 Q610.6856,178.5351 609.8887,178.5351 Z " fill="#000000"/><text fill="#000000" font-family="Calibri" font-size="14" lengthAdjust="spacing" textLength="114.7856" x="628.7793" y="189.2198">Message Handler</text><g class="message" data-entity-1="part4" data-entity-2="part6" id="msg4"><polygon fill="#181818" points="817.9777,254.7338,827.9777,258.7338,817.9777,262.7338" style="stroke:#181818;stroke-width:1;"/><line style="stroke:#181818;stroke-width:1;" x1="517.7203" x2="823.9777" y1="258.7338" y2="258.7338"/><text fill="#000000" font-family="Calibri" font-size="13" lengthAdjust="spacing" textLength="186.4202" x="526.7203" y="233.2188">wsopen(url, message_handler,</text><text fill="#000000" font-family="Calibri" font-size="13" lengthAdjust="spacing" textLength="69.9791" x="526.7203" y="250.9248">tls_options)</text></g><g class="message" data-entity-1="part6" data-entity-2="part6" id="msg5"><line style="stroke:#181818;stroke-width:1;" x1="844.9777" x2="886.9777" y1="294.4398" y2="294.4398"/><line style="stroke:#181818;stroke-width:1;" x1="886.9777" x2="886.9777" y1="294.4398" y2="307.4398"/><line style="stroke:#181818;stroke-width:1;" x1="845.9777" x2="886.9777" y1="307.4398" y2="307.4398"/><polygon fill="#181818" points="855.9777,303.4398,845.9777,307.4398,855.9777,311.4398" style="stroke:#181818;stroke-width:1;"/><text fill="#000000" font-family="Calibri" font-size="13" lengthAdjust="spacing" textLength="129.6621" x="853.9777" y="286.6308">Wrap socket with TLS</text></g><g class="message" data-entity-1="part6" data-entity-2="part6" id="msg6"><line style="stroke:#181818;stroke-width:1;" x1="844.9777" x2="886.9777" y1="373.1459" y2="373.1459"/><line style="stroke:#181818;stroke-width:1;" x1="886.9777" x2="886.9777" y1="373.1459" y2="386.1459"/><line style="stroke:#181818;stroke-width:1;" x1="845.9777" x2="886.9777" y1="386.1459" y2="386.1459"/><polygon fill="#181818" points="855.9777,382.1459,845.9777,386.1459,855.9777,390.1459" style="stroke:#181818;stroke-width:1;"/><text fill="#000000" font-family="Calibri" font-size="13" lengthAdjust="spacing" textLength="154.0631" x="853.9777" y="365.3369">Complete TLS handshake</text></g><path d="M433.7964,431.1459 L499.3552,431.1459 L499.3552,444.8519 L489.3552,454.8519 L433.7964,454.8519 L433.7964,431.1459" fill="#EEEEEE" style="stroke:#000000;stroke-width:1.5;"/><rect fill="none" height="550.9877" style="stroke:#000000;stroke-width:1.5;" width="665.6784" x="433.7964" y="431.1459"/><text fill="#000000" font-family="Calibri" font-size="13" font-weight="bold" lengthAdjust="spacing" textLength="16.5588" x="450.7964" y="448.0429">alt</text><text fill="#000000" font-family="Calibri" font-size="11" font-weight="bold" lengthAdjust="spacing" textLength="141.9348" x="516.3552" y="446.9048">[fingerprint is configured]</text><g class="message" data-entity-1="part6" data-entity-2="part6" id="msg7"><line style="stroke:#181818;stroke-width:1;" x1="844.9777" x2="886.9777" y1="504.2458" y2="504.2458"/><line style="stroke:#181818;stroke-width:1;" x1="886.9777" x2="886.9777" y1="504.2458" y2="517.2458"/><line style="stroke:#181818;stroke-width:1;" x1="845.9777" x2="886.9777" y1="517.2458" y2="517.2458"/><polygon fill="#181818" points="855.9777,513.2458,845.9777,517.2458,855.9777,521.2458" style="stroke:#181818;stroke-width:1;"/><text fill="#000000" font-family="Calibri" font-size="13" lengthAdjust="spacing" textLength="152.5681" x="853.9777" y="478.7308">Read peer certificate and</text><text fill="#000000" font-family="Calibri" font-size="13" lengthAdjust="spacing" textLength="178.1652" x="853.9777" y="496.4368">calculate SHA-256 fingerprint</text></g><path d="M443.7964,562.2458 L509.3552,562.2458 L509.3552,575.9518 L499.3552,585.9518 L443.7964,585.9518 L443.7964,562.2458" fill="#EEEEEE" style="stroke:#000000;stroke-width:1.5;"/><rect fill="none" height="277.4939" style="stroke:#000000;stroke-width:1.5;" width="645.6784" x="443.7964" y="562.2458"/><text fill="#000000" font-family="Calibri" font-size="13" font-weight="bold" lengthAdjust="spacing" textLength="16.5588" x="460.7964" y="579.1428">alt</text><text fill="#000000" font-family="Calibri" font-size="11" font-weight="bold" lengthAdjust="spacing" textLength="116.7972" x="526.3552" y="578.0047">[fingerprint matches]</text><g class="message" data-entity-1="part6" data-entity-2="part6" id="msg8"><line style="stroke:#181818;stroke-width:1;" x1="844.9777" x2="886.9777" y1="617.6397" y2="617.6397"/><line style="stroke:#181818;stroke-width:1;" x1="886.9777" x2="886.9777" y1="617.6397" y2="630.6397"/><line style="stroke:#181818;stroke-width:1;" x1="845.9777" x2="886.9777" y1="630.6397" y2="630.6397"/><polygon fill="#181818" points="855.9777,626.6397,845.9777,630.6397,855.9777,634.6397" style="stroke:#181818;stroke-width:1;"/><text fill="#000000" font-family="Calibri" font-size="13" lengthAdjust="spacing" textLength="211.4972" x="853.9777" y="609.8307">Upgrade connection to WebSocket</text></g><g class="message" data-entity-1="part6" data-entity-2="part4" id="msg9"><line style="stroke:#181818;stroke-width:1;" x1="518.7203" x2="528.7203" y1="696.3457" y2="692.3457"/><line style="stroke:#181818;stroke-width:1;" x1="518.7203" x2="528.7203" y1="696.3457" y2="700.3457"/><line style="stroke:#181818;stroke-width:1;stroke-dasharray:2,2;" x1="517.7203" x2="828.9777" y1="696.3457" y2="696.3457"/><text fill="#000000" font-family="Calibri" font-size="13" lengthAdjust="spacing" textLength="40.209" x="536.7203" y="688.5367">Socket</text></g><line style="stroke:#000000;stroke-width:1;stroke-dasharray:2,2;" x1="443.7964" x2="1089.4748" y1="705.3457" y2="705.3457"/><text fill="#000000" font-family="Calibri" font-size="11" font-weight="bold" lengthAdjust="spacing" textLength="313.4787" x="450.7964" y="719.1047">[fingerprint mismatches or certificate data is unavailable]</text><g class="message" data-entity-1="part6" data-entity-2="part6" id="msg10"><line style="stroke:#181818;stroke-width:1;" x1="844.9777" x2="886.9777" y1="753.0336" y2="753.0336"/><line style="stroke:#181818;stroke-width:1;" x1="886.9777" x2="886.9777" y1="753.0336" y2="766.0336"/><line style="stroke:#181818;stroke-width:1;" x1="845.9777" x2="886.9777" y1="766.0336" y2="766.0336"/><polygon fill="#181818" points="855.9777,762.0336,845.9777,766.0336,855.9777,770.0336" style="stroke:#181818;stroke-width:1;"/><text fill="#000000" font-family="Calibri" font-size="13" lengthAdjust="spacing" textLength="100.2301" x="853.9777" y="745.2246">Close TLS socket</text></g><g class="message" data-entity-1="part6" data-entity-2="part4" id="msg11"><line style="stroke:#181818;stroke-width:1;" x1="518.7203" x2="528.7203" y1="831.7397" y2="827.7397"/><line style="stroke:#181818;stroke-width:1;" x1="518.7203" x2="528.7203" y1="831.7397" y2="835.7397"/><line style="stroke:#181818;stroke-width:1;stroke-dasharray:2,2;" x1="517.7203" x2="828.9777" y1="831.7397" y2="831.7397"/><text fill="#000000" font-family="Calibri" font-size="13" lengthAdjust="spacing" textLength="31.2" x="536.7203" y="823.9307">Error</text></g><line style="stroke:#000000;stroke-width:1;stroke-dasharray:2,2;" x1="433.7964" x2="1099.4748" y1="847.7397" y2="847.7397"/><text fill="#000000" font-family="Calibri" font-size="11" font-weight="bold" lengthAdjust="spacing" textLength="158.9352" x="440.7964" y="861.4986">[no fingerprint is configured]</text><g class="message" data-entity-1="part6" data-entity-2="part6" id="msg12"><line style="stroke:#181818;stroke-width:1;" x1="844.9777" x2="886.9777" y1="895.4276" y2="895.4276"/><line style="stroke:#181818;stroke-width:1;" x1="886.9777" x2="886.9777" y1="895.4276" y2="908.4276"/><line style="stroke:#181818;stroke-width:1;" x1="845.9777" x2="886.9777" y1="908.4276" y2="908.4276"/><polygon fill="#181818" points="855.9777,904.4276,845.9777,908.4276,855.9777,912.4276" style="stroke:#181818;stroke-width:1;"/><text fill="#000000" font-family="Calibri" font-size="13" lengthAdjust="spacing" textLength="211.4972" x="853.9777" y="887.6186">Upgrade connection to WebSocket</text></g><g class="message" data-entity-1="part6" data-entity-2="part4" id="msg13"><line style="stroke:#181818;stroke-width:1;" x1="518.7203" x2="528.7203" y1="974.1336" y2="970.1336"/><line style="stroke:#181818;stroke-width:1;" x1="518.7203" x2="528.7203" y1="974.1336" y2="978.1336"/><line style="stroke:#181818;stroke-width:1;stroke-dasharray:2,2;" x1="517.7203" x2="828.9777" y1="974.1336" y2="974.1336"/><text fill="#000000" font-family="Calibri" font-size="13" lengthAdjust="spacing" textLength="40.209" x="536.7203" y="966.3246">Socket</text></g><g class="message" data-entity-1="part4" data-entity-2="part1" id="msg14"><line style="stroke:#181818;stroke-width:1;" x1="72.5688" x2="82.5688" y1="1016.8396" y2="1012.8396"/><line style="stroke:#181818;stroke-width:1;" x1="72.5688" x2="82.5688" y1="1016.8396" y2="1020.8396"/><line style="stroke:#181818;stroke-width:1;stroke-dasharray:2,2;" x1="71.5688" x2="511.7203" y1="1016.8396" y2="1016.8396"/><text fill="#000000" font-family="Calibri" font-size="13" lengthAdjust="spacing" textLength="118.9891" x="90.5688" y="1009.0306">connection or error</text></g><g class="message" data-entity-1="part1" data-entity-2="part2" id="msg15"><polygon fill="#181818" points="166.6505,1055.5456,176.6505,1059.5456,166.6505,1063.5456" style="stroke:#181818;stroke-width:1;"/><line style="stroke:#181818;stroke-width:1;" x1="71.5688" x2="172.6505" y1="1059.5456" y2="1059.5456"/><text fill="#000000" font-family="Calibri" font-size="13" lengthAdjust="spacing" textLength="55.64" x="80.5688" y="1051.7366">execute()</text></g><g class="message" data-entity-1="part2" data-entity-2="part3" id="msg16"><polygon fill="#181818" points="317.0032,1091.2516,327.0032,1095.2516,317.0032,1099.2516" style="stroke:#181818;stroke-width:1;"/><line style="stroke:#181818;stroke-width:1;" x1="188.6505" x2="323.0032" y1="1095.2516" y2="1095.2516"/><text fill="#000000" font-family="Calibri" font-size="13" lengthAdjust="spacing" textLength="91.0001" x="197.6505" y="1087.4426">send_execute()</text></g><g class="message" data-entity-1="part3" data-entity-2="part3" id="msg17"><line style="stroke:#181818;stroke-width:1;" x1="344.0032" x2="386.0032" y1="1130.9576" y2="1130.9576"/><line style="stroke:#181818;stroke-width:1;" x1="386.0032" x2="386.0032" y1="1130.9576" y2="1143.9576"/><line style="stroke:#181818;stroke-width:1;" x1="345.0032" x2="386.0032" y1="1143.9576" y2="1143.9576"/><polygon fill="#181818" points="355.0032,1139.9576,345.0032,1143.9576,355.0032,1147.9576" style="stroke:#181818;stroke-width:1;"/><text fill="#000000" font-family="Calibri" font-size="13" lengthAdjust="spacing" textLength="130.5981" x="353.0032" y="1123.1486">Encode JSON payload</text></g><g class="message" data-entity-1="part3" data-entity-2="part4" id="msg18"><polygon fill="#181818" points="495.7203,1205.6637,505.7203,1209.6637,495.7203,1213.6637" style="stroke:#181818;stroke-width:1;"/><line style="stroke:#181818;stroke-width:1;" x1="339.0032" x2="501.7203" y1="1209.6637" y2="1209.6637"/><text fill="#000000" font-family="Calibri" font-size="13" lengthAdjust="spacing" textLength="145.7171" x="348.0032" y="1201.8547">send_raw(json_payload)</text></g><g class="message" data-entity-1="part4" data-entity-2="part6" id="msg19"><polygon fill="#181818" points="817.9777,1241.3697,827.9777,1245.3697,817.9777,1249.3697" style="stroke:#181818;stroke-width:1;"/><line style="stroke:#181818;stroke-width:1;" x1="517.7203" x2="823.9777" y1="1245.3697" y2="1245.3697"/><text fill="#000000" font-family="Calibri" font-size="13" lengthAdjust="spacing" textLength="148.4211" x="526.7203" y="1237.5607">wssend(socket, payload)</text></g><g class="message" data-entity-1="part6" data-entity-2="part6" id="msg20"><line style="stroke:#181818;stroke-width:1;" x1="844.9777" x2="886.9777" y1="1298.7817" y2="1298.7817"/><line style="stroke:#181818;stroke-width:1;" x1="886.9777" x2="886.9777" y1="1298.7817" y2="1311.7817"/><line style="stroke:#181818;stroke-width:1;" x1="845.9777" x2="886.9777" y1="1311.7817" y2="1311.7817"/><polygon fill="#181818" points="855.9777,1307.7817,845.9777,1311.7817,855.9777,1315.7817" style="stroke:#181818;stroke-width:1;"/><text fill="#000000" font-family="Calibri" font-size="13" lengthAdjust="spacing" textLength="44.694" x="853.9777" y="1273.2667">Encode</text><text fill="#000000" font-family="Calibri" font-size="13" lengthAdjust="spacing" textLength="106.7171" x="853.9777" y="1290.9727">Websocket frame</text></g><g class="message" data-entity-1="part6" data-entity-2="part7" id="msg21"><polygon fill="#181818" points="1072.4748,1373.4877,1082.4748,1377.4877,1072.4748,1381.4877" style="stroke:#181818;stroke-width:1;"/><line style="stroke:#181818;stroke-width:1;" x1="839.9777" x2="1078.4748" y1="1377.4877" y2="1377.4877"/><text fill="#000000" font-family="Calibri" font-size="13" lengthAdjust="spacing" textLength="80.1711" x="848.9777" y="1369.6787">socket:send()</text></g><g class="message" data-entity-1="part6" data-entity-2="part4" id="msg22"><line style="stroke:#181818;stroke-width:1;" x1="518.7203" x2="528.7203" y1="1391.4877" y2="1387.4877"/><line style="stroke:#181818;stroke-width:1;" x1="518.7203" x2="528.7203" y1="1391.4877" y2="1395.4877"/><line style="stroke:#181818;stroke-width:1;stroke-dasharray:2,2;" x1="517.7203" x2="833.9777" y1="1391.4877" y2="1391.4877"/></g><path d="M433.7964,1406.4877 L597.1673,1406.4877 L597.1673,1420.1937 L587.1673,1430.1937 L433.7964,1430.1937 L433.7964,1406.4877" fill="#EEEEEE" style="stroke:#000000;stroke-width:1.5;"/><rect fill="none" height="511.7481" style="stroke:#000000;stroke-width:1.5;" width="816.6355" x="433.7964" y="1406.4877"/><text fill="#000000" font-family="Calibri" font-size="13" font-weight="bold" lengthAdjust="spacing" textLength="114.3708" x="450.7964" y="1423.3847">Wait for response</text><g class="message" data-entity-1="part7" data-entity-2="part7" id="msg23"><line style="stroke:#181818;stroke-width:1;" x1="1099.4748" x2="1141.4748" y1="1457.8998" y2="1457.8998"/><line style="stroke:#181818;stroke-width:1;" x1="1141.4748" x2="1141.4748" y1="1457.8998" y2="1470.8998"/><line style="stroke:#181818;stroke-width:1;" x1="1100.4748" x2="1141.4748" y1="1470.8998" y2="1470.8998"/><polygon fill="#181818" points="1110.4748,1466.8998,1100.4748,1470.8998,1110.4748,1474.8998" style="stroke:#181818;stroke-width:1;"/><text fill="#000000" font-family="Calibri" font-size="13" lengthAdjust="spacing" textLength="112.9571" x="1108.4748" y="1450.0908">Process statement</text></g><path d="M443.7964,1515.8998 L521.5005,1515.8998 L521.5005,1529.6058 L511.5005,1539.6058 L443.7964,1539.6058 L443.7964,1515.8998" fill="#EEEEEE" style="stroke:#000000;stroke-width:1.5;"/><rect fill="none" height="99.0999" style="stroke:#000000;stroke-width:1.5;" width="473.594" x="443.7964" y="1515.8998"/><text fill="#000000" font-family="Calibri" font-size="13" font-weight="bold" lengthAdjust="spacing" textLength="28.704" x="460.7964" y="1532.7968">loop</text><text fill="#000000" font-family="Calibri" font-size="11" font-weight="bold" lengthAdjust="spacing" textLength="109.4355" x="538.5005" y="1531.6587">[until data received]</text><g class="message" data-entity-1="part4" data-entity-2="part6" id="msg24"><polygon fill="#181818" points="817.9777,1567.2937,827.9777,1571.2937,817.9777,1575.2937" style="stroke:#181818;stroke-width:1;"/><line style="stroke:#181818;stroke-width:1;" x1="517.7203" x2="823.9777" y1="1571.2937" y2="1571.2937"/><text fill="#000000" font-family="Calibri" font-size="13" lengthAdjust="spacing" textLength="107.1071" x="526.7203" y="1563.4847">wsreceive(socket)</text></g><g class="message" data-entity-1="part6" data-entity-2="part4" id="msg25"><line style="stroke:#181818;stroke-width:1;" x1="518.7203" x2="528.7203" y1="1606.9997" y2="1602.9997"/><line style="stroke:#181818;stroke-width:1;" x1="518.7203" x2="528.7203" y1="1606.9997" y2="1610.9997"/><line style="stroke:#181818;stroke-width:1;stroke-dasharray:2,2;" x1="517.7203" x2="828.9777" y1="1606.9997" y2="1606.9997"/><text fill="#000000" font-family="Calibri" font-size="13" lengthAdjust="spacing" textLength="103.8051" x="536.7203" y="1599.1907">no data available</text></g><g class="message" data-entity-1="part7" data-entity-2="part6" id="msg26"><polygon fill="#181818" points="855.9777,1645.7057,845.9777,1649.7057,855.9777,1653.7057" style="stroke:#181818;stroke-width:1;"/><line style="stroke:#181818;stroke-width:1;" x1="849.9777" x2="1078.4748" y1="1649.7057" y2="1649.7057"/><text fill="#000000" font-family="Calibri" font-size="13" lengthAdjust="spacing" textLength="59.0981" x="863.9777" y="1641.8967">Response</text></g><g class="message" data-entity-1="part6" data-entity-2="part6" id="msg27"><line style="stroke:#181818;stroke-width:1;" x1="849.9777" x2="891.9777" y1="1703.1178" y2="1703.1178"/><line style="stroke:#181818;stroke-width:1;" x1="891.9777" x2="891.9777" y1="1703.1178" y2="1716.1178"/><line style="stroke:#181818;stroke-width:1;" x1="850.9777" x2="891.9777" y1="1716.1178" y2="1716.1178"/><polygon fill="#181818" points="860.9777,1712.1178,850.9777,1716.1178,860.9777,1720.1178" style="stroke:#181818;stroke-width:1;"/><text fill="#000000" font-family="Calibri" font-size="13" lengthAdjust="spacing" textLength="46.254" x="858.9777" y="1677.6027">Decode</text><text fill="#000000" font-family="Calibri" font-size="13" lengthAdjust="spacing" textLength="106.7171" x="858.9777" y="1695.3087">Websocket frame</text></g><g class="message" data-entity-1="part6" data-entity-2="part5" id="msg28"><polygon fill="#181818" points="688.1721,1777.8238,678.1721,1781.8238,688.1721,1785.8238" style="stroke:#181818;stroke-width:1;"/><line style="stroke:#181818;stroke-width:1;" x1="682.1721" x2="833.9777" y1="1781.8238" y2="1781.8238"/><text fill="#000000" font-family="Calibri" font-size="13" lengthAdjust="spacing" textLength="109.1351" x="696.1721" y="1774.0148">Message received</text></g><g class="message" data-entity-1="part5" data-entity-2="part5" id="msg29"><line style="stroke:#181818;stroke-width:1;" x1="682.1721" x2="724.1721" y1="1817.5298" y2="1817.5298"/><line style="stroke:#181818;stroke-width:1;" x1="724.1721" x2="724.1721" y1="1817.5298" y2="1830.5298"/><line style="stroke:#181818;stroke-width:1;" x1="683.1721" x2="724.1721" y1="1830.5298" y2="1830.5298"/><polygon fill="#181818" points="693.1721,1826.5298,683.1721,1830.5298,693.1721,1834.5298" style="stroke:#181818;stroke-width:1;"/><text fill="#000000" font-family="Calibri" font-size="13" lengthAdjust="spacing" textLength="90.3371" x="691.1721" y="1809.7208">Store message</text></g><g class="message" data-entity-1="part5" data-entity-2="part6" id="msg30"><line style="stroke:#181818;stroke-width:1;" x1="827.9777" x2="817.9777" y1="1874.5298" y2="1870.5298"/><line style="stroke:#181818;stroke-width:1;" x1="827.9777" x2="817.9777" y1="1874.5298" y2="1878.5298"/><line style="stroke:#181818;stroke-width:1;stroke-dasharray:2,2;" x1="672.1721" x2="828.9777" y1="1874.5298" y2="1874.5298"/></g><g class="message" data-entity-1="part6" data-entity-2="part4" id="msg31"><line style="stroke:#181818;stroke-width:1;" x1="518.7203" x2="528.7203" y1="1910.2358" y2="1906.2358"/><line style="stroke:#181818;stroke-width:1;" x1="518.7203" x2="528.7203" y1="1910.2358" y2="1914.2358"/><line style="stroke:#181818;stroke-width:1;stroke-dasharray:2,2;" x1="517.7203" x2="833.9777" y1="1910.2358" y2="1910.2358"/><text fill="#000000" font-family="Calibri" font-size="13" lengthAdjust="spacing" textLength="84.526" x="536.7203" y="1902.4268">data available</text></g><g class="message" data-entity-1="part4" data-entity-2="part5" id="msg32"><polygon fill="#181818" points="655.1721,1948.9418,665.1721,1952.9418,655.1721,1956.9418" style="stroke:#181818;stroke-width:1;"/><line style="stroke:#181818;stroke-width:1;" x1="517.7203" x2="661.1721" y1="1952.9418" y2="1952.9418"/><text fill="#000000" font-family="Calibri" font-size="13" lengthAdjust="spacing" textLength="60.8661" x="526.7203" y="1945.1328">get_data()</text></g><g class="message" data-entity-1="part5" data-entity-2="part4" id="msg33"><line style="stroke:#181818;stroke-width:1;" x1="518.7203" x2="528.7203" y1="1966.9418" y2="1962.9418"/><line style="stroke:#181818;stroke-width:1;" x1="518.7203" x2="528.7203" y1="1966.9418" y2="1970.9418"/><line style="stroke:#181818;stroke-width:1;stroke-dasharray:2,2;" x1="517.7203" x2="671.1721" y1="1966.9418" y2="1966.9418"/></g><g class="message" data-entity-1="part4" data-entity-2="part3" id="msg34"><line style="stroke:#181818;stroke-width:1;" x1="340.0032" x2="350.0032" y1="2002.6478" y2="1998.6478"/><line style="stroke:#181818;stroke-width:1;" x1="340.0032" x2="350.0032" y1="2002.6478" y2="2006.6478"/><line style="stroke:#181818;stroke-width:1;stroke-dasharray:2,2;" x1="339.0032" x2="511.7203" y1="2002.6478" y2="2002.6478"/><text fill="#000000" font-family="Calibri" font-size="13" lengthAdjust="spacing" textLength="110.9031" x="358.0032" y="1994.8388">Response payload</text></g><g class="message" data-entity-1="part3" data-entity-2="part3" id="msg35"><line style="stroke:#181818;stroke-width:1;" x1="344.0032" x2="386.0032" y1="2056.0599" y2="2056.0599"/><line style="stroke:#181818;stroke-width:1;" x1="386.0032" x2="386.0032" y1="2056.0599" y2="2069.0599"/><line style="stroke:#181818;stroke-width:1;" x1="345.0032" x2="386.0032" y1="2069.0599" y2="2069.0599"/><polygon fill="#181818" points="355.0032,2065.0599,345.0032,2069.0599,355.0032,2073.0599" style="stroke:#181818;stroke-width:1;"/><text fill="#000000" font-family="Calibri" font-size="13" lengthAdjust="spacing" textLength="135.6421" x="353.0032" y="2030.5448">Decode JSON payload,</text><text fill="#000000" font-family="Calibri" font-size="13" lengthAdjust="spacing" textLength="118.9761" x="353.0032" y="2048.2509">check for exception</text></g><g class="message" data-entity-1="part3" data-entity-2="part2" id="msg36"><line style="stroke:#181818;stroke-width:1;" x1="189.6505" x2="199.6505" y1="2134.7659" y2="2130.7659"/><line style="stroke:#181818;stroke-width:1;" x1="189.6505" x2="199.6505" y1="2134.7659" y2="2138.7659"/><line style="stroke:#181818;stroke-width:1;stroke-dasharray:2,2;" x1="188.6505" x2="333.0032" y1="2134.7659" y2="2134.7659"/><text fill="#000000" font-family="Calibri" font-size="13" lengthAdjust="spacing" textLength="56.6411" x="207.6505" y="2126.9569">result set</text></g><g class="message" data-entity-1="part2" data-entity-2="part1" id="msg37"><line style="stroke:#181818;stroke-width:1;" x1="72.5688" x2="82.5688" y1="2170.4719" y2="2166.4719"/><line style="stroke:#181818;stroke-width:1;" x1="72.5688" x2="82.5688" y1="2170.4719" y2="2174.4719"/><line style="stroke:#181818;stroke-width:1;stroke-dasharray:2,2;" x1="71.5688" x2="182.6505" y1="2170.4719" y2="2170.4719"/><text fill="#000000" font-family="Calibri" font-size="13" lengthAdjust="spacing" textLength="39.104" x="90.5688" y="2162.6629">cursor</text></g><?plantuml-src jLPRRnCv57wVN-4j3oHIKWJIyX2XID1KObTb5n5G7oYA7Cz9OkhO8zlJfY_zxHpRS_4uav0Yo4ChZy_tdViv_ejB9ieSoFdv2oQ0odDposMM5LHRpdX1fILd5u83_hzGEPmHQWWBvpTlO6T1IogcqsofTkJiSaUD4cIc-HreibAQN9NqB2Fuwn8gAO5PhcJWmoEoaS75wDdRsUpbkrT3WfHxi41_3KkZs2rOZuKTlJUdWBkmqp0Vm1Yw1lAUobo0ziYjMM_2yHI6g_9wJkQjNb5wpPytNETUye48ljHKFo0QP4umZbcFqsH6BLrI4nAGBxECOlpkg8Kg6-tPNQwrAWloZ-IMKq7QS7i3g_IDfouA4nzzl1sKMWpzVSDqRuAy1dTg7VTV4OiCKJGcbU1W6DrxVoTuK0L8fs94jY6eYmetkf5Mc8Kgd7qciS31_HVFq_9TQrgGa4vop-s6VBwQ7q3cy5Es2xKj1A00iX1dbjdGMtW27nMMhBXSWouqnz1oNzChlYurv5x2_PwJhxcHZ-Zjc05cUCKPiemZuBZWKkBnyQMppZ3vM2Ldx9mSRwbb6xm-14VOT4euEZCgBHWxukxljyQ0nErFGB460LCNyH5q_qOoAbWft77-_kturT-lO_SQllr070fGNv2yDz3UzrZufLXhYiE9DGLCh2BOoQ6ZEj1-fSSCQXMEfrKl9BmW37HjvgOocwXks7BiJvVtKj8xoWLT2kWegfAluRjBPyrpF9bL3Jm9SxG0-cfVA1CAt_oXc5vghNGRKXaQmeTMgjFR1lTISR1lSDs4prWY_SsZIlkRskRKednQTnmkn3fYVSWQKutqIMmK5YWqeO_027MKMRi6_FwTu2e5LlhvtUuMlCdyDOg5LJiX1k6B7c5_dmMfIFnICdmua7_d__-76-z1A9gdcCYwXAHLgEdzuBjHSb5nH8eHa6mRXnY4WXwHVO2FNvBMOEQDRDu9PANf5X9GceIQ95ywEprkufKFEmivpkuUHrZMrvHR_sJIO0hSX65y86_D_b4hXgkJ68l8BLHpEDQI9Bhw8fGgS2nPBiAGqi00tsTHW_LNP1BI2bP5TVYJCa_A6HlTw-xEngQobxKcjvHYx_US-QNzFeF-r3wTiFFSgL-7dO0ssEIv525JdhbL6kfdqL6IoBGZz2xgVTuS9alyRDBMaxCKvKT9Jt3MO1SE7ZT2P41gRxSj8i7QddgQrFNHZ99aigNJ9-I-CttmnOaRdDtwReCT0__qF7Kc-N4R1YPsQecF6eE3Uayw3CtkR2wrmN4SYVhn-WC0?></g></svg>